<svg width="209" height="161" viewBox="0 0 209 161" fill="none" xmlns="http://www.w3.org/2000/svg">
<path d="M177.709 160.953L42.1388 161C35.3281 161.002 29.2273 157.483 25.8199 151.586C24.116 148.637 23.2638 145.402 23.2627 142.166C23.2616 138.931 24.1119 135.695 25.8133 132.746L93.5552 9.42548C96.9589 3.52565 103.057 0.00235623 109.868 1.18129e-06C116.679 -0.00235386 122.78 3.51671 126.187 9.41419L194.023 132.703C195.723 135.644 196.573 138.875 196.573 142.109C196.573 145.342 195.723 148.578 194.021 151.528C190.618 157.427 184.519 160.951 177.709 160.953ZM24.9668 142.164C24.9666 145.109 39.9263 138.763 41.4761 141.446C44.5761 146.811 35.9419 159.302 42.1382 159.3C42.1382 159.3 189.452 156.045 192.548 150.678C194.096 147.994 194.87 145.05 194.869 142.107C194.868 139.164 194.092 136.221 192.542 133.538L124.706 10.2495C121.615 4.89994 116.065 1.69825 109.869 1.7004C103.675 1.70254 24.967 139.219 24.9668 142.164Z" fill="#E6E6E6"/>
<path d="M66.1276 103.38L60.5203 115.227C67.2992 110.366 77.8874 106.176 86.3132 103.932C78.4625 100.14 68.856 94.0254 63.1169 87.972L66.342 100.491C28.5304 92.7891 1.37732 63.7819 1.36582 30.554L0 30.0841C0.0120048 64.7915 26.7895 95.5163 66.1276 103.38Z" fill="#E6E6E6"/>
<path d="M158.937 125.264C186.129 117.978 202.265 90.0286 194.979 62.8372C187.693 35.6458 159.744 19.5092 132.553 26.7951C105.361 34.081 89.2248 62.0304 96.5107 89.2218C103.797 116.413 131.746 132.55 158.937 125.264Z" fill="#CC3434"/>
<path d="M131.486 65.3596L129.375 69.0166L160.002 86.6993L162.114 83.0423L131.486 65.3596Z" fill="white"/>
<path d="M156.415 61.7713L152.758 59.6599L135.075 90.2873L138.732 92.3987L156.415 61.7713Z" fill="white"/>
</svg>
